<svg version="1.1"
  xmlns="http://www.w3.org/2000/svg" viewBox="0 0 469.6565113304846 494.0765785248947">
  <!-- svg-source:excalidraw -->

  <defs>
    <style>
      @font-face {
        font-family: "Virgil";
        src: url("https://excalidraw.com/Virgil.woff2");
      }
    </style>
  </defs>
  <g stroke-linecap="round">
    <g transform="translate(458.82865367965906 10.641136422753334) rotate(0 -224.00039801441676 236.39715283969403)">
      <path d="M-0.9 -0.64 C-28.39 36.08, -134.93 154.51, -164.25 219.54 C-193.58 284.57, -166.92 348.82, -176.86 389.52 C-186.79 430.22, -210.21 451.23, -223.87 463.73 C-237.53 476.24, -245.07 476.81, -258.81 464.54 C-272.54 452.27, -295.82 430.97, -306.27 390.09 C-316.73 349.21, -297.86 284.31, -321.55 219.26 C-345.24 154.21, -426.96 36.49, -448.41 -0.2 M0.83 1.64 C-26.91 38.08, -135.64 153.46, -165.35 217.79 C-195.07 282.12, -167.75 347.01, -177.44 387.63 C-187.12 428.25, -209.71 448.71, -223.47 461.51 C-237.24 474.3, -246.38 476.49, -260.02 464.41 C-273.66 452.33, -295.1 430.09, -305.32 389.03 C-315.54 347.97, -297.45 282.88, -321.37 218.04 C-345.29 153.2, -427.61 36.67, -448.83 -0.02" stroke="#000000" stroke-width="2" fill="none"></path>
    </g>
  </g>
  <g transform="translate(82.96601946407509 10.107705839913365) rotate(0 143.62970525568176 65.28622966167353)">
    <text x="0" y="91.57245932334709" font-family="Virgil, Segoe UI Emoji" font-size="104.45796745867774px" fill="#c92a2a" text-anchor="start" style="white-space: pre;" direction="ltr">empty</text>
  </g>
</svg>