<svg version="1.1"
  xmlns="http://www.w3.org/2000/svg" viewBox="0 0 325.955586184587 344.69471559752736">
  <!-- svg-source:excalidraw -->

  <defs>
    <style>
      @font-face {
        font-family: "Virgil";
        src: url("https://excalidraw.com/Virgil.woff2");
      }
      @font-face {
        font-family: "Cascadia";
        src: url("https://excalidraw.com/Cascadia.woff2");
      }
    </style>
  </defs>
  <g stroke-linecap="round">
    <g transform="translate(48.265692383426426 71.27474570170261) rotate(0 114.71210070886696 101.0726120970611)" fill-rule="evenodd">
      <path d="M-37.75 -59.32 C-37.75 -59.32, -37.75 -59.32, -37.75 -59.32 M-37.75 -59.32 C-37.75 -59.32, -37.75 -59.32, -37.75 -59.32 M-35.39 -55.94 C-35.39 -55.94, -35.39 -55.94, -35.39 -55.94 M-35.39 -55.94 C-35.39 -55.94, -35.39 -55.94, -35.39 -55.94 M-33.03 -52.56 C-33.03 -52.56, -33.03 -52.56, -33.03 -52.56 M-33.03 -52.56 C-33.03 -52.56, -33.03 -52.56, -33.03 -52.56 M-31.41 -48.36 C-31.23 -48.65, -31.01 -48.91, -30.66 -49.27 M-31.31 -48.45 C-31.11 -48.62, -30.89 -48.85, -30.65 -49.2 M-28.96 -45.05 C-28.96 -45.05, -28.96 -45.05, -28.96 -45.05 M-28.96 -45.05 C-28.96 -45.05, -28.96 -45.05, -28.96 -45.05 M-26.6 -41.67 C-26.6 -41.67, -26.6 -41.67, -26.6 -41.67 M-26.6 -41.67 C-26.6 -41.67, -26.6 -41.67, -26.6 -41.67 M-24.23 -38.29 C-24.23 -38.29, -24.23 -38.29, -24.23 -38.29 M-24.23 -38.29 C-24.23 -38.29, -24.23 -38.29, -24.23 -38.29 M-22.59 -34.07 C-22.36 -34.32, -22.22 -34.57, -21.87 -34.83 M-22.51 -34.12 C-22.37 -34.42, -22.11 -34.58, -21.84 -34.95 M-20.07 -30.83 C-19.88 -31.05, -19.64 -31.36, -19.44 -31.49 M-20.19 -30.8 C-19.95 -30.98, -19.78 -31.27, -19.54 -31.5 M-17.8 -27.4 C-17.8 -27.4, -17.8 -27.4, -17.8 -27.4 M-17.8 -27.4 C-17.8 -27.4, -17.8 -27.4, -17.8 -27.4 M-15.44 -24.02 C-15.44 -24.02, -15.44 -24.02, -15.44 -24.02 M-15.44 -24.02 C-15.44 -24.02, -15.44 -24.02, -15.44 -24.02 M-13.68 -19.91 C-13.53 -20.1, -13.35 -20.42, -12.99 -20.59 M-13.71 -19.87 C-13.53 -20.09, -13.3 -20.37, -13.04 -20.65 M-11.46 -16.53 C-11.29 -16.77, -11.09 -16.83, -10.68 -17.21 M-11.39 -16.46 C-11.16 -16.75, -10.91 -17.1, -10.67 -17.25 M-9.05 -13.06 C-8.84 -13.41, -8.64 -13.54, -8.27 -13.8 M-9.02 -13.11 C-8.89 -13.26, -8.68 -13.43, -8.34 -13.83 M-6.64 -9.75 C-6.64 -9.75, -6.64 -9.75, -6.64 -9.75 M-6.64 -9.75 C-6.64 -9.75, -6.64 -9.75, -6.64 -9.75 M-4.94 -5.71 C-4.65 -5.86, -4.58 -6.14, -4.34 -6.34 M-4.95 -5.61 C-4.73 -5.88, -4.48 -6.23, -4.26 -6.39 M-2.66 -2.29 C-2.38 -2.59, -2.11 -2.86, -1.92 -2.96 M-2.53 -2.28 C-2.32 -2.45, -2.12 -2.76, -1.91 -2.98 M-0.17 1.07 C0.01 1.01, 0.09 0.72, 0.5 0.48 M-0.2 1.11 C-0.05 0.93, 0.16 0.75, 0.41 0.42 M1.4 4.41 C4.71 1.08, 6.12 -0.96, 9.12 -2.18 M2.16 4.58 C3.72 1.81, 6.38 0.38, 9.05 -3.47 M2.66 6.96 C8.6 4.39, 14.44 -1.79, 16.53 -5.48 M3.99 7.86 C7.21 4.55, 9.45 2.08, 17.95 -7.25 M6.08 12.45 C10.95 4.56, 15.05 -2.25, 24.05 -10.74 M6.87 11.16 C11.94 5.55, 19.43 -1.78, 25.46 -9.59 M9.79 14.23 C14.6 6.61, 22.66 2, 28.47 -9.01 M8.96 16.3 C14.68 9.53, 19.37 1.5, 29.62 -8.92 M12.05 17.3 C20.14 7.5, 30.46 -4.21, 36.76 -10.18 M11.78 19.32 C19.57 7.46, 30.52 -2.1, 37.14 -11.42 M13.01 22.74 C22.16 8.96, 32.07 -3.06, 42.67 -12.16 M12.52 22.88 C22.17 13.1, 29.59 4.22, 42.75 -10.67 M15.23 26.28 C25.38 12.21, 37.72 -0.94, 46.88 -9.22 M15.23 25.61 C22.67 19.54, 28.18 11.57, 47.06 -10.3 M17.51 31.08 C26.53 18.9, 38.96 5.71, 48.43 -6.33 M18.37 28.73 C30 16.08, 41.86 1.52, 48.67 -7.45 M20.12 34.08 C31.22 19.29, 43.97 4.45, 51.8 -4.41 M18.79 33.1 C27.01 23.09, 36.05 15.51, 52.98 -6.29 M22.65 34.8 C34.78 19.11, 46.35 5.13, 58.14 -3.71 M21.27 35.87 C34.9 22.39, 46.15 9.4, 56.19 -2.65 M23.84 38.68 C37.32 24.54, 48.26 11.24, 59.15 0.98 M23.08 40.5 C34.5 28.1, 45.46 14.95, 60.81 -1.36 M27.42 45.8 C38.4 30.06, 52.07 13.71, 64.16 -0.14 M25.55 43.42 C35.23 31.92, 46.04 20.57, 63.54 -0.03 M27.34 49.33 C42.8 29.55, 61.5 12.25, 67.45 4.48 M27.98 47.1 C43.98 29.71, 58.35 12.57, 66.25 3.16 M29.61 52.22 C41.89 40.04, 48.06 31.4, 72.68 5.77 M31.25 50.63 C39.08 41.08, 49.6 29.35, 71.18 4.24 M32.82 53.83 C46.52 41.37, 57.36 24.19, 80.08 1.87 M33.02 55.07 C50.52 35.21, 67.85 14.32, 77.81 1.04 M35.29 57.73 C50.02 42.32, 60.58 27.73, 87.72 -3.57 M34.63 57.07 C46.92 45.27, 59.38 31.11, 86.84 -1.67 M35.69 62.26 C60.98 38.06, 81.84 12.28, 95.98 -7.04 M36.39 62.18 C51.4 43.7, 66.26 27.08, 96.44 -6.11 M38.09 66.07 C56.49 44.39, 69.85 27.86, 102.73 -9.64 M38.41 66.21 C57.15 44.47, 76.1 23.82, 104.1 -9.14 M39.91 67.46 C66.08 43.48, 88.25 13.14, 108.55 -7.03 M41.22 69.32 C62.05 44.15, 84.39 20.71, 107.53 -6.44 M41.11 74.46 C63.09 48.17, 86.56 24.14, 110.41 -5.36 M42.73 73.86 C65.2 47.51, 87.05 21.86, 111.19 -5.68 M45.33 78.09 C67.86 48.68, 90.87 23.95, 115.81 -2.46 M44 76.47 C59.94 60.49, 73.03 45.71, 115.99 -3.87 M48.43 83.19 C68.06 56.75, 86.58 34.03, 119.75 -3 M45.59 80.68 C66.75 59.77, 85.53 35.85, 119.08 -1.81 M49 84.78 C74.73 57.05, 94.88 30.29, 121.36 0.31 M48.78 83.98 C66.02 64.86, 81.64 44.47, 122.2 0.54 M48.94 90.82 C68.5 65.25, 86.08 44.33, 125.07 0.52 M49.78 88.45 C78.33 57.71, 107.43 24.63, 125.48 2.63 M50.56 91.51 C78.08 63.36, 102.63 34.8, 130.39 5.26 M51.66 92.82 C69.71 73.62, 86.94 52.3, 129.07 3.89 M53.15 98.17 C79.14 67.19, 107.09 34.86, 133.87 6.29 M54.57 97.07 C77.38 70.8, 101.2 42.76, 133.71 6.12 M54.17 101 C80.9 70.1, 106.91 37.9, 136.92 6.6 M55.68 103.05 C85.11 67.92, 115 34.56, 138.3 6.32 M53.77 107.39 C77.4 85.07, 96.72 61.26, 148.21 4.17 M55.39 108.55 C91.66 65.73, 128.21 25.1, 147.05 3.25 M56.58 111.01 C83.94 84.25, 112.91 49.64, 157.1 -4.93 M55.88 113.12 C81.44 83.16, 108.29 51.92, 156.59 -3.67 M55.01 120.11 C87.21 84.75, 115.47 51.61, 165.35 -7.7 M56.1 118.23 C82.71 86.47, 110.99 54.65, 166.42 -8.77 M59.69 121.33 C83.51 93.07, 109.41 63.85, 177.62 -10.72 M58.89 123.79 C97.51 76.75, 138.14 30.8, 175.12 -12.84 M56.69 130.27 C105.39 75.79, 148.79 23.13, 181.4 -11.76 M58.05 130.58 C101.87 79.12, 145.72 30.31, 181.01 -11.99 M60.02 137.04 C93.15 97.87, 128.26 57.24, 183.36 -11.09 M57.37 134.48 C90.58 100.36, 122.15 62.84, 184.19 -11.12 M59.5 142.33 C101.49 88.34, 147.78 35.7, 188.74 -9.8 M58.4 142.43 C84.53 109.26, 112.65 75.72, 188.7 -9.5 M59.74 148.36 C90.33 110.48, 117.93 73.79, 191.22 -5.63 M58.23 148.09 C109.43 84.35, 164.06 23.54, 191.95 -6.69 M58.86 153.33 C104.38 104.03, 148.51 52.45, 195.62 -4.38 M57.22 153.93 C89.07 116.13, 119.3 81.51, 196.54 -5.65 M57.76 157.99 C99.49 112.87, 143.89 63.61, 198.8 -1.95 M57.8 159.06 C95.63 113.7, 134.87 69.51, 198.56 -2.41 M58.25 164.37 C101.81 115.87, 143.2 68.57, 201.73 -1.07 M58.58 165.29 C89.53 127.77, 119.94 91.48, 203.63 -0.25 M58.71 171.39 C88.42 136.58, 121.39 101.48, 206.45 -2.31 M57.84 171.65 C106.14 117.79, 153.28 65.26, 207.91 -0.72 M58.63 177.34 C96.3 131.65, 137.72 84.68, 213.8 -2.26 M57.68 178.27 C109.01 120.72, 160.18 62.21, 213.96 -1.3 M58.07 182.41 C122.05 111.81, 187.64 38.19, 266.77 -58.48 M58.73 182.83 C101.69 129.94, 147.14 78.57, 268.1 -57.27 M57.94 190.1 C94.38 145.6, 131.41 104.63, 215.97 10.3 M57.73 190.52 C103.59 138.68, 148.49 86.54, 216.15 7.95 M56.88 194.51 C84.69 166.81, 111.91 138.27, 167 73.79 M59.06 194.57 C86.49 164.37, 112.77 135.46, 166.3 73.41 M60.79 200.23 C84.13 172.74, 104.97 148.66, 155.44 91.28 M59.93 199.95 C95.13 160.76, 129.97 119.28, 156.32 89.69 M60.32 206.77 C87.93 172.41, 116.84 138.55, 158.19 95.4 M60.67 206.75 C91.69 169.34, 123.35 133.47, 158.05 93.36 M62.87 210.39 C87.79 179.9, 119.17 146.68, 151.33 106.81 M60.9 209.5 C82 187.82, 99.28 167.76, 150.53 107.33 M63.15 213.52 C85.21 192.14, 108.34 165.72, 147.67 116.1 M62.73 213.51 C92.5 182.06, 121.75 147.81, 149.13 116.05 M66.3 220.05 C91.89 191.35, 116.46 158.76, 145.45 122.54 M65.65 219.89 C81.95 198.26, 99.05 178.68, 147.09 125.06 M66.35 223.62 C90.1 195.25, 113.47 167.55, 147.78 129.42 M65.7 222.65 C85.28 202.96, 103.21 182.28, 146.65 130.07 M70.18 227.19 C94.79 198.94, 120.43 169.46, 145.97 137.2 M69.13 226.07 C97.12 194.92, 125.06 162.19, 147.05 136.94 M71.32 228.14 C99.54 197.22, 124.41 165.01, 148.62 140.5 M70.94 230.53 C92.5 204.92, 116.28 178.58, 149.42 140.44 M74.5 232.55 C102.15 199.27, 134.78 163.94, 150.28 147.79 M73.11 232.6 C99.5 204.07, 124.69 175.11, 148.09 146.65 M75.46 238.5 C102.73 208.49, 126.38 176.69, 147.83 154.53 M75.19 237.15 C97.43 210.8, 119.35 185.85, 148.73 154.04 M78.82 240.9 C94.05 218.88, 112.43 198.41, 150.39 156.88 M77.84 241.92 C97.82 219.5, 115.71 197.29, 148.94 157.77 M79.96 245.08 C102.95 217.49, 125.33 191.08, 147.85 162.43 M81.45 243.86 C108.37 212.71, 134.38 179.48, 148.56 164.35 M84.21 246.56 C109.64 215.81, 135.61 185.73, 150.75 169.04 M83.01 246.79 C106.36 220.15, 130.21 191.88, 150.19 169.17 M83.97 248.36 C107.84 224.92, 128.81 199.61, 148.06 178.17 M86.04 249.38 C107.3 222.49, 130.48 196.75, 148.77 175.68 M88.66 254.86 C107.95 230.13, 132.14 205.25, 151.09 181.63 M88.15 252.85 C103.52 233.49, 118.91 216.18, 150.13 182.87 M91.15 255.56 C111.54 232.45, 134.2 208.26, 148.67 185.98 M92.26 255.51 C111.92 234.38, 129.96 212.01, 149.97 187.47 M93.7 258.93 C105.75 246.03, 121.56 228.2, 149.68 196.78 M94.24 258.37 C110.08 240.07, 126.15 220.23, 149.02 194.99 M99.05 259.43 C115.86 240.31, 131.07 221.09, 149.52 202.66 M96.71 260.95 C113.02 242.02, 129.53 223.47, 149.32 201.54 M98.39 261.65 C112.28 249.06, 125.64 237.41, 148.66 208.15 M100.73 263.18 C110.63 251.9, 122.19 238.94, 149.4 207.49 M108.36 260.49 C115.59 252.56, 123.56 244.91, 140.02 223.05 M109.54 260.43 C117.53 248.49, 126.3 239.02, 139.47 224.57 M91.1 256.45 C91.1 256.45, 91.1 256.45, 91.1 256.45 M91.1 256.45 C91.1 256.45, 91.1 256.45, 91.1 256.45 M102.79 263.53 C92.86 254.83, 84.39 248.39, 76.18 237.2 M103.37 262.35 C95.14 255.31, 86.15 246.19, 76.59 238.29 M108.79 261.39 C97.44 250.74, 88.71 244.12, 71.11 228.21 M107.13 260 C98.59 252.61, 89.87 242.67, 69.7 227.17 M111.87 256.25 C104.14 252.48, 96.15 241.53, 68.31 222.23 M111.01 258.28 C96.19 244.65, 82.64 232.56, 69.1 222.32 M114.47 255.95 C96.9 237.42, 76.94 221.59, 68.54 214.17 M113.38 255.6 C96.19 238.62, 76.76 222.94, 67.5 214.87 M115.23 253.94 C96.57 234.5, 76.68 217.22, 60.49 204.72 M116.85 252.76 C104.46 241.86, 92.08 230.43, 62.05 205.57 M119.67 249.09 C107.29 238.93, 94.59 226.3, 60.7 197.55 M120.65 248.53 C100.12 232.65, 78.66 215.52, 60.97 198.68 M123.38 248.82 C101.65 229.82, 82.59 211.77, 58.46 194.66 M122.55 247.57 C110.28 233.94, 94.95 221.73, 60.13 193.19 M125.23 243.62 C104.67 226.98, 85.46 209.45, 60.22 188.04 M125.76 244.7 C110.52 231.45, 94.94 218.43, 60.26 187.23 M129.76 241.45 C109.99 224.25, 88.45 207.07, 60.13 182.83 M128.12 240.15 C102.87 219.24, 77.85 195.99, 61.11 182.96 M131.44 236.97 C109.04 218.54, 83.61 197.86, 61.37 175.82 M129.94 238.47 C105.67 217.62, 82.43 195.06, 59.58 175.97 M132.55 233.96 C110.15 213.96, 89.38 195.81, 60.66 171.91 M132.74 235.83 C109.57 214.67, 86.93 193.58, 59.9 171.37 M133.6 232.51 C110.51 210.84, 91.77 193.62, 59.4 164.61 M135.31 230.95 C109.6 208.05, 84.4 186.56, 59.54 165.23 M136.86 228.79 C114.37 208.02, 95.3 190.82, 60.91 161.17 M137.95 227.63 C109.06 203.8, 80.11 178.57, 60.07 161.34 M139.95 225.54 C112.9 204.55, 89.53 180.13, 61.55 155.09 M139.86 225.05 C119.79 208.64, 101.23 191.17, 59.15 154.62 M142.83 219.95 C123.95 204.05, 105.46 188.93, 59.22 150.53 M142.74 220.4 C110.57 195.02, 80.15 167.39, 58.58 149.25 M142.71 214.7 C126.26 200.9, 106.55 184.77, 60.26 146.19 M143.49 215.78 C123.05 200.22, 106.56 184.21, 60.06 145.34 M143.26 211.8 C111.76 187.59, 82.99 159.37, 60.4 137.12 M144.16 212.72 C124.71 193.87, 102.33 175.78, 59.78 138.54 M145.3 208.49 C116.6 181.79, 86.5 156.71, 59.21 133.15 M146.25 207.91 C127.11 193.18, 107.85 176.73, 59.58 133.22 M145.21 203.6 C128.41 185.98, 106.17 169.18, 61.24 129.41 M147.96 204.36 C123.47 182.7, 99.71 162.05, 59.9 128.81 M146.39 198.11 C113.77 170.64, 79.12 139.9, 57.77 120.16 M147.3 199.7 C118.76 174.28, 92.2 150.9, 58.13 122.36 M148.19 196.24 C112.14 162.88, 79.08 133.28, 57.97 114.5 M147.76 194.08 C130.3 178.84, 112.34 161.97, 57.57 116.11 M149.35 189.96 C128.95 172.31, 103.61 148.62, 57.57 110.33 M149.47 190.44 C113.56 160.24, 76.93 129.19, 56.79 110.13 M151.68 187.53 C124.36 164.43, 98.11 139.6, 56.82 104.02 M149.58 185.86 C119.83 158.92, 88.28 132.83, 57.32 105.87 M151.51 180.5 C124.35 158.69, 94.97 135.14, 55.92 99.73 M149.45 180.31 C126.63 159.66, 102.83 139.26, 55.77 98.16 M150.13 175.62 C128.64 155.84, 108.97 137.98, 51.94 89.71 M149.8 175.37 C127.75 156.37, 106.19 138.65, 50.53 89.41 M148.19 170 C122.95 149.01, 98.56 124.84, 46.58 78.81 M148.86 169.14 C119.71 142.85, 89.74 118.14, 46.15 80.82 M147.45 164.88 C110.18 128.9, 69.9 96.98, 40.75 72.41 M148.74 162.82 C107.07 127.97, 65.98 93.35, 41.77 72.06 M146.92 158.77 C117.78 130.95, 85.21 104.82, 37.34 63.46 M149.42 157.62 C121.88 137.15, 95.56 114.29, 38.46 61.21 M148.8 153.98 C106.47 117.5, 63.4 77.48, 33.12 49.01 M149.33 152.06 C120.07 128.25, 94.16 104.14, 30.96 50.95 M150.45 149.03 C103.57 108.06, 56.15 67.77, 25.43 37.31 M149.04 148.17 C122.06 124.48, 97.87 101.36, 25.06 38.52 M146.53 141.88 C107.12 109.05, 67.39 73.71, 17.89 26.31 M148.15 141.52 C110.77 109.01, 71.44 75, 16.96 27.98 M148.74 137.65 C103.27 100.53, 56.43 60.08, 8.81 16.84 M148.72 136.69 C114.24 106.63, 79.68 74.99, 10.5 16.13 M148.72 132.48 C98.83 88.01, 52.38 47.17, 3.89 5.69 M148.91 131.95 C94.99 84.5, 40.02 36.59, 3.5 5.45 M147.74 128.05 C98.2 84.2, 48.97 40.8, -0.31 -2.57 M148.38 125.48 C118.81 99.03, 85.94 71.61, 2 -1.37 M1.17 -2.36 C-0.02 -3.34, -2.18 -4.3, -3.86 -6.62 M1.28 -1.42 C0.13 -2.86, -1.28 -3.78, -3.75 -5.92 M146.73 122 C119.72 96.67, 85.99 68.42, 7.15 -2.27 M149.21 119.99 C113.2 88.85, 76.72 57.97, 5.04 -2.78 M-5.85 -12.69 C-7.51 -15.17, -9.27 -16.4, -11.52 -17.46 M-6.04 -13.45 C-7.3 -14.67, -9.47 -16.69, -11.21 -17.49 M150.45 114.51 C119.1 89.23, 87.06 62.12, 8.57 -6.35 M148.77 116.76 C102.4 75.46, 52.66 32.09, 9.86 -5.33 M-14.16 -25.69 C-15.34 -26.16, -15.4 -27.63, -18.75 -29.84 M-13.69 -25.19 C-14.81 -26.57, -16.12 -27.64, -18.43 -29.25 M149.75 111.57 C98.41 68.17, 48.27 26.54, 15.02 -8.49 M150.63 112.11 C100.28 67.83, 48.5 21.86, 13.8 -6.49 M-20.54 -36.81 C-22.08 -38.04, -24.01 -39.93, -25.18 -41.39 M-20.57 -36.71 C-21.57 -37.83, -22.9 -38.65, -25.36 -40.68 M151.66 106.46 C103.99 62.83, 56.22 23.63, 16.81 -10.09 M149.52 105.52 C120.86 80.34, 89.8 54.57, 17.84 -9.14 M-28.65 -49.24 C-30.01 -50.29, -30.83 -51.05, -33.01 -52.1 M-28.58 -49.17 C-29.64 -50.24, -30.96 -50.85, -32.39 -52.55 M150.74 102.33 C122.42 75.97, 93.41 49.45, 21.44 -10.27 M151.56 103.12 C113.11 67.72, 71.47 34.29, 21.61 -10.54 M152.19 99.32 C120.77 69.19, 88.34 44.14, 25.52 -12.56 M154.04 98.68 C123.39 72.67, 93 46.34, 27.23 -12.25 M156.08 95.37 C115.24 60.77, 76.75 27.77, 31.03 -14.21 M154.36 93.94 C122.36 67.12, 91.6 41.32, 29.74 -13.7 M154.07 91.17 C119.56 54.97, 77.69 20.79, 35.09 -12.19 M156.27 90.8 C108.53 48.29, 61.18 7.6, 37.53 -13.71 M158.06 88.32 C126.52 60.42, 100.03 34.06, 46.45 -12.89 M158.71 86.39 C117.07 51.78, 77.11 16.75, 45.06 -12.07 M159.65 81.09 C132.88 59.59, 104.76 36.34, 59.83 -3.12 M159.98 83.67 C138.25 64.7, 115.4 44.81, 60.82 -2.87 M160.59 79.57 C139.47 59.31, 117.01 39.73, 71.62 -1.93 M161.89 78.35 C128.57 50.95, 94.81 22.07, 69.87 0.56 M161.96 75.52 C138.98 54.67, 114.56 29.73, 75.11 -2.02 M163.66 75.5 C129.73 45.08, 95.35 15.65, 74.68 -2.03 M167.33 70.13 C134.65 46.89, 103.3 19.27, 78.02 -0.96 M164.83 71.13 C135.17 45.39, 105.36 18.8, 79.45 -2.27 M168.76 68.52 C141.64 46.09, 113.91 20.3, 84.22 -2.74 M167.93 69.44 C135.44 38.86, 102.03 10.3, 83.51 -4.85 M170.91 64.92 C137.81 39.92, 107.41 11.14, 88.37 -6.58 M170.36 65.8 C141.95 40.74, 114.07 16.04, 86.72 -5.65 M173.54 61.09 C147.49 41.32, 123.34 21.1, 91.91 -6.52 M171.55 61.93 C146.84 38.62, 120.65 15.65, 91.13 -7.5 M173.41 57.5 C156.75 42.06, 136.89 26.29, 96.23 -9.55 M174.66 58.9 C148.89 36, 121.85 13.54, 94.9 -9.54 M175.74 57.17 C154.33 35.66, 135.92 18.98, 102.61 -11.22 M176.68 55.69 C152.8 34.76, 130.61 14.82, 99.95 -11.01 M179.65 51.4 C155.34 32.93, 135.05 13.67, 112.44 -7.12 M179.6 52.75 C159.25 34.38, 139.32 18.63, 110.89 -8.02 M182.04 49 C164.29 34.33, 146.83 20.75, 126.84 0.32 M181.1 48.03 C168.01 37.43, 154.11 23.56, 126.37 1.49 M182.89 45.39 C174.53 37.44, 160.76 28, 137.3 2.47 M183.41 45.77 C169.6 32.04, 154.28 19.61, 136.45 3.15 M185.08 43.75 C178.4 35.36, 167.48 25.89, 139.78 3.23 M186 42.54 C172.28 29.61, 155.7 16.68, 140.4 2.65 M188.65 41.53 C172.43 27.28, 158.38 9.52, 145.6 0.34 M189.47 39.45 C177.68 28.39, 163.45 16.31, 144.32 1.89 M191.21 35.55 C174.57 23.09, 160.58 10.47, 146.06 -3.96 M192.72 36.1 C182.47 27.71, 171.5 19.33, 147.43 -2.65 M194.38 33.18 C180.98 22.86, 167.48 11.24, 151.9 -4.67 M193.06 33.47 C182.62 22.71, 171.3 13.14, 150.35 -4.82 M196 28.81 C184.99 22.15, 176.23 13.32, 155.53 -6.07 M197.2 29.2 C182.12 16.55, 167.25 5.28, 154.94 -5.07 M200.77 27.64 C185 13.58, 170.82 -0.04, 157.64 -6.64 M199.58 27.2 C189.86 19.43, 180.6 11.09, 157.73 -8.59 M200.5 22.2 C192.92 13.84, 181.74 6.55, 162.22 -11.89 M201.31 24.91 C193.11 16.1, 183.17 8.05, 162.57 -10.38 M204.48 19.47 C192.66 12.76, 181.34 0.95, 167.44 -10.61 M204.34 20.19 C191.09 9.21, 178.71 -0.62, 166.28 -12.68 M208.73 18.7 C192.87 7.78, 179.88 -4.62, 172.13 -11.65 M207.31 17.94 C196.75 8.79, 185.8 0.08, 170.83 -13.98 M210.38 14.56 C196.43 2.14, 184.3 -7.9, 176.93 -14.1 M209.77 15.05 C198.29 5.06, 187.3 -5.52, 175.2 -14.46 M211.91 9.58 C205.16 4.91, 197.44 -1.69, 184.76 -10.93 M211.06 11.61 C203.28 5.18, 196 -3.14, 183.63 -11.8 M215.38 9.58 C209.04 4.37, 205.31 2.35, 203.52 -1.25 M214.56 8.46 C211.42 6.28, 208.66 2.63, 203.08 -2.3 M216.74 5.85 C214.73 3.47, 211.53 1.63, 207.95 -1.32 M217.07 5.01 C214.26 3.43, 213.19 1.9, 208.07 -1.66 M219.63 1.45 C217.8 1.19, 217.04 0.57, 212.7 -2.67 M219.17 2.32 C218.14 0.79, 216.6 0.18, 213.38 -3.24 M221.5 -1.57 C220.01 -3.02, 218.88 -3.72, 217.02 -5.93 M221.34 -1.48 C219.92 -2.64, 217.96 -4.18, 216.43 -5.1 M224.05 -4.08 C222.13 -5.1, 221.54 -6.67, 220.26 -7.96 M223.92 -4.64 C222.63 -5.59, 221.32 -6.7, 220.26 -7.78 M226.67 -7.85 C225.43 -8.49, 223.8 -9.89, 222.25 -10.58 M226.57 -7.72 C225.48 -8.05, 224.61 -9.09, 222.87 -10.74 M229.21 -10.54 C228.06 -10.68, 227.91 -11.93, 225.7 -12.95 M229.23 -10.67 C228.29 -11.37, 227.27 -11.87, 226 -13.26 M231.82 -13.72 C231.01 -14.05, 230.05 -14.66, 228.81 -16.48 M231.7 -13.61 C230.57 -14.29, 229.67 -15.33, 228.75 -16.03 M233.68 -16.91 C232.54 -18.14, 231.76 -18.79, 231.61 -19.44 M233.67 -17.24 C232.94 -17.87, 232.35 -18.36, 231.17 -19.07 M236.02 -20.19 C235.61 -20.73, 235.33 -21.05, 234.54 -21.55 M236.28 -20.28 C235.86 -20.66, 235.37 -20.99, 234.61 -21.53 M238.63 -23.24 C238.17 -23.71, 237.71 -24.14, 237.22 -24.64 M238.73 -23.25 C238.32 -23.66, 237.85 -23.95, 237.39 -24.64 M241.34 -26.45 C241.08 -26.5, 240.57 -26.73, 239.99 -27.63 M241.49 -26.35 C240.89 -26.67, 240.41 -27.14, 240.04 -27.56 M244.06 -29.33 C243.87 -29.77, 243.54 -29.98, 242.67 -30.77 M244 -29.2 C243.52 -29.75, 243.05 -30.19, 242.47 -30.63 M246.02 -33.04 C245.73 -33.13, 245.54 -33.36, 245.15 -33.69 M245.99 -33 C245.62 -33.19, 245.34 -33.49, 245.2 -33.62 M248.64 -35.91 C248.35 -36.13, 248.07 -36.31, 247.77 -36.71 M248.54 -35.95 C248.38 -36.1, 248.24 -36.28, 247.82 -36.65 M251.16 -39.06 C251.01 -39.24, 250.84 -39.35, 250.53 -39.67 M251.2 -38.99 C251.03 -39.18, 250.78 -39.37, 250.42 -39.65 M253.83 -42.05 C253.52 -42.24, 253.28 -42.56, 253.16 -42.64 M253.82 -42.05 C253.55 -42.2, 253.33 -42.46, 253.1 -42.65 M256.42 -45.02 C256.3 -45.19, 256.2 -45.27, 255.66 -45.65 M256.47 -45 C256.16 -45.2, 255.99 -45.46, 255.65 -45.65 M258.99 -48.1 C258.73 -48.25, 258.52 -48.43, 258.34 -48.8 M259.11 -48.02 C258.83 -48.27, 258.53 -48.51, 258.27 -48.72 M260.94 -51.72 C260.94 -51.72, 260.94 -51.72, 260.94 -51.72 M260.94 -51.72 C260.94 -51.72, 260.94 -51.72, 260.94 -51.72 M263.56 -54.74 C263.56 -54.74, 263.56 -54.74, 263.56 -54.74 M263.56 -54.74 C263.56 -54.74, 263.56 -54.74, 263.56 -54.74 M266.18 -57.76 C266.18 -57.76, 266.18 -57.76, 266.18 -57.76 M266.18 -57.76 C266.18 -57.76, 266.18 -57.76, 266.18 -57.76" stroke="#fab005" stroke-width="0.5" fill="none"></path>
      <path d="M1.16 -0.17 C7.29 -2.26, 25.89 -13.77, 37.25 -13.46 C48.61 -13.15, 58.51 0.95, 69.34 1.69 C80.16 2.42, 91.13 -9.36, 102.19 -9.04 C113.26 -8.73, 123.79 4.49, 135.73 3.59 C147.68 2.68, 160.89 -13.43, 173.84 -14.5 C186.79 -15.57, 198 4.18, 213.42 -2.86 C228.84 -9.9, 276.17 -72.51, 266.36 -56.74 C256.55 -40.97, 174.53 48.08, 154.56 91.75 C134.59 135.41, 152.98 178, 146.53 205.23 C140.09 232.47, 125.1 246.43, 115.88 255.16 C106.66 263.9, 100.59 266.04, 91.21 257.64 C81.82 249.24, 66.63 232.74, 59.56 204.77 C52.5 176.8, 64.93 133.59, 48.82 89.81 C32.71 46.03, -28.83 -42.82, -37.1 -57.91 C-45.37 -73.01, -7.14 -10.48, -0.79 -0.77 M0.31 -1.31 C6.26 -3.15, 24.96 -12.86, 36.39 -12.13 C47.83 -11.41, 57.96 2.31, 68.91 3.04 C79.86 3.77, 91.2 -7.88, 102.09 -7.75 C112.98 -7.62, 122.13 4.59, 134.27 3.82 C146.4 3.06, 161.57 -11.54, 174.91 -12.34 C188.24 -13.13, 199.12 6.57, 214.27 -0.93 C229.41 -8.43, 275.46 -72.61, 265.77 -57.31 C256.08 -42.01, 175.87 47.16, 156.14 90.87 C136.4 134.58, 154.53 177.37, 147.35 204.94 C140.17 232.5, 122.66 247.45, 113.06 256.26 C103.46 265.06, 98.7 265.97, 89.76 257.76 C80.82 249.55, 65.85 234.51, 59.41 207 C52.98 179.49, 67.22 137.02, 51.15 92.7 C35.08 48.38, -28.47 -43.46, -37.02 -58.9 C-45.57 -74.33, -6.39 -9.96, -0.17 0.07" stroke="#000000" stroke-width="1" fill="none"></path>
    </g>
  </g>
  <g stroke-linecap="round" transform="translate(112.65863789900641 104.13875757553564) rotate(301.67823109670115 9.24745227386046 5.963816560028221)">
    <path d="M1.63 2.86 L16.72 2.33 L19.93 12.92 L3.91 14.57 L0.86 1.37 L5.39 -2.21" stroke="none" stroke-width="0" fill="#743c01"></path>
    <path d="M2.98 0 M2.98 0 C9.32 0.06, 13.24 -0.93, 15.51 0 M2.98 0 C7.8 -1.08, 10.74 -1.09, 15.51 0 M15.51 0 C16.56 -0.35, 16.32 2.69, 18.49 2.98 M15.51 0 C15.75 2.2, 15.71 4.3, 18.49 2.98 M18.49 2.98 C17.49 5.4, 17.44 7.15, 18.49 8.95 M18.49 2.98 C19.01 5.38, 17.97 6.8, 18.49 8.95 M18.49 8.95 C18.84 7.3, 14.67 11.18, 15.51 11.93 M18.49 8.95 C22.34 9.93, 18.01 11.82, 15.51 11.93 M15.51 11.93 C10.98 13.1, 9.65 11.87, 2.98 11.93 M15.51 11.93 C12.1 12.16, 6.9 10.61, 2.98 11.93 M2.98 11.93 C-0.73 8.39, -0.36 7.16, 0 8.95 M2.98 11.93 C-2.09 11.64, -2.29 8.8, 0 8.95 M0 8.95 C-0.11 6.56, -0.33 4.42, 0 2.98 M0 8.95 C0.25 7.6, -0.29 5.99, 0 2.98 M0 2.98 C-2.97 -0.47, 3.72 1.71, 2.98 0 M0 2.98 C0.68 0.95, 3.93 1.72, 2.98 0" stroke="#743c01" stroke-width="1" fill="none"></path>
  </g>
  <g stroke-linecap="round" transform="translate(142.78105709518456 231.47330792430932) rotate(345.52416018554 7.095273187618602 6.912696559217281)">
    <path d="M2.43 1.59 L15.5 2.61 L16.49 16.35 L1.53 12.65 L2.62 -0.27 L5.64 3.67" stroke="none" stroke-width="0" fill="#743c01"></path>
    <path d="M3.46 0 M3.46 0 C6.62 -0.51, 8.52 0.6, 10.73 0 M3.46 0 C5.69 -0.47, 8.14 0.05, 10.73 0 M10.73 0 C10.87 1.7, 12.67 3.06, 14.19 3.46 M10.73 0 C10.25 3.31, 12.08 0.76, 14.19 3.46 M14.19 3.46 C12.87 7.34, 14.4 7.69, 14.19 10.37 M14.19 3.46 C13.81 5.43, 14.39 6.85, 14.19 10.37 M14.19 10.37 C11.36 11.92, 16.39 12.95, 10.73 13.83 M14.19 10.37 C14.7 12.57, 14.03 17.97, 10.73 13.83 M10.73 13.83 C10.38 13.98, 8.23 14.65, 3.46 13.83 M10.73 13.83 C9.02 13.17, 6.75 13.22, 3.46 13.83 M3.46 13.83 C0.79 10.05, -2.68 12.42, 0 10.37 M3.46 13.83 C-1.14 11.69, 4.13 10.65, 0 10.37 M0 10.37 C-0.42 9.07, -0.23 7.54, 0 3.46 M0 10.37 C-0.39 8.84, -0.57 6.11, 0 3.46 M0 3.46 C2.72 2.86, 1.75 -0.04, 3.46 0 M0 3.46 C2.93 2.88, 1.26 4.42, 3.46 0" stroke="#743c01" stroke-width="1" fill="none"></path>
  </g>
  <g stroke-linecap="round" transform="translate(162.70606361561022 159.5522128852992) rotate(322.31546716719714 4.073505848213927 13.601765143918946)">
    <path d="M4.21 1.74 L11.31 5.43 L8.82 24.86 L8.52 24.99 L2.18 28.83 L0.99 5.07 L2.24 2.19" stroke="none" stroke-width="0" fill="#743c01"></path>
    <path d="M2.04 0 M2.04 0 C3.39 0.46, 3.55 -0.25, 6.11 0 M2.04 0 C2.71 0.18, 3.67 0.2, 6.11 0 M6.11 0 C5.05 2.88, 6.31 0.34, 8.15 2.04 M6.11 0 C10.76 -3.84, 11.62 -3.34, 8.15 2.04 M8.15 2.04 C7.89 15.16, 11.41 17.35, 8.15 25.17 M8.15 2.04 C6.77 8.47, 9.86 15.22, 8.15 25.17 M8.15 25.17 C8.59 26.43, 8.33 30.81, 6.11 27.2 M8.15 25.17 C4.64 25.59, 9.98 31.22, 6.11 27.2 M6.11 27.2 C4.48 27.9, 3.85 27.38, 2.04 27.2 M6.11 27.2 C5.24 26.75, 4.17 27.11, 2.04 27.2 M2.04 27.2 C-1.31 25.35, 3.59 24.76, 0 25.17 M2.04 27.2 C-3.59 26.59, -0.23 25.07, 0 25.17 M0 25.17 C-0.32 19.71, 2.32 8.89, 0 2.04 M0 25.17 C1.71 17.49, 0.64 8.08, 0 2.04 M0 2.04 C2.55 2.18, 0.77 3.84, 2.04 0 M0 2.04 C1.65 -0.76, 1.41 -3.36, 2.04 0" stroke="#743c01" stroke-width="1" fill="none"></path>
  </g>
  <g stroke-linecap="round" transform="translate(182.76870166321544 103.10185849675679) rotate(32.815810559274965 4.07350584821387 13.601765143918954)">
    <path d="M5.2 3.39 L8.82 1.73 L10.56 22.96 L8.29 30.87 L0.99 28.2 L0.2 4.23 L0.66 0.92" stroke="none" stroke-width="0" fill="#743c01"></path>
    <path d="M2.04 0 M2.04 0 C2.78 -0.27, 4.16 -0.24, 6.11 0 M2.04 0 C3.07 0.16, 4.16 0.26, 6.11 0 M6.11 0 C5.63 -0.34, 11.01 -2.66, 8.15 2.04 M6.11 0 C10.94 -4.02, 12.53 1.75, 8.15 2.04 M8.15 2.04 C11.26 4.49, 7.88 13.23, 8.15 25.17 M8.15 2.04 C9.49 6.44, 8.04 11.66, 8.15 25.17 M8.15 25.17 C9.01 30.13, 4.42 26.39, 6.11 27.2 M8.15 25.17 C10.66 30.54, 7.71 29.59, 6.11 27.2 M6.11 27.2 C4.91 27.41, 2.47 26.92, 2.04 27.2 M6.11 27.2 C4.98 27.1, 4.18 26.94, 2.04 27.2 M2.04 27.2 C4.27 25.44, -3.71 25.99, 0 25.17 M2.04 27.2 C0.44 25.75, 0.46 25.7, 0 25.17 M0 25.17 C2.28 16.23, 2.8 8.21, 0 2.04 M0 25.17 C-0.02 19.05, 0.96 13.73, 0 2.04 M0 2.04 C0.09 4.52, 2.11 -1.25, 2.04 0 M0 2.04 C0.73 -2.68, -0.79 1.89, 2.04 0" stroke="#743c01" stroke-width="1" fill="none"></path>
  </g>
  <g stroke-linecap="round" transform="translate(121.64239435740012 169.98676677196892) rotate(33.91074468318515 6.68719985113114 6.071673039498471)">
    <path d="M3.7 -0.31 L15.02 -1.45 L14.79 15.05 L1.75 14.42 L0.39 3.9 L1.66 0.92" stroke="none" stroke-width="0" fill="#743c01"></path>
    <path d="M3.04 0 M3.04 0 C4.37 -0.48, 6.85 -0.43, 10.34 0 M3.04 0 C4.88 0.29, 6.85 0.46, 10.34 0 M10.34 0 C10.53 -0.34, 16.24 -2.33, 13.37 3.04 M10.34 0 C15.84 -4.02, 17.76 2.08, 13.37 3.04 M13.37 3.04 C14.32 3.56, 13.3 5.99, 13.37 9.11 M13.37 3.04 C13.8 4.17, 13.36 5.56, 13.37 9.11 M13.37 9.11 C14.23 14.73, 9.32 11.33, 10.34 12.14 M13.37 9.11 C15.88 15.15, 12.61 14.53, 10.34 12.14 M10.34 12.14 C8.18 12.5, 3.81 11.63, 3.04 12.14 M10.34 12.14 C8.31 11.96, 6.89 11.67, 3.04 12.14 M3.04 12.14 C4.6 10.38, -3.71 10.6, 0 9.11 M3.04 12.14 C0.78 10.69, 0.46 10.31, 0 9.11 M0 9.11 C0.69 6.68, 0.85 4.53, 0 3.04 M0 9.11 C0.01 7.5, 0.3 6.14, 0 3.04 M0 3.04 C0.09 4.85, 2.45 -1.25, 3.04 0 M0 3.04 C0.73 -2.35, -0.46 1.89, 3.04 0" stroke="#743c01" stroke-width="1" fill="none"></path>
  </g>
  <g stroke-linecap="round" transform="translate(150.91522346509998 268.8746975858201) rotate(32.815810559274965 4.07350584821387 13.601765143918948)">
    <path d="M4.45 -2.21 L10.33 5.7 L9.14 28.2 L6.31 29.39 L-1.38 26.08 L1.66 3.38 L4.49 -3.19" stroke="none" stroke-width="0" fill="#743c01"></path>
    <path d="M2.04 0 M2.04 0 C3.08 -0.42, 4.61 -0.29, 6.11 0 M2.04 0 C3.27 -0.09, 5.16 -0.4, 6.11 0 M6.11 0 C10.49 -3.49, 11.96 1.61, 8.15 2.04 M6.11 0 C4.46 -0.42, 12.72 4.31, 8.15 2.04 M8.15 2.04 C4.48 4.42, 7.37 15.83, 8.15 25.17 M8.15 2.04 C8.63 10.27, 6.67 14.5, 8.15 25.17 M8.15 25.17 C10.33 30.02, 7.68 29.28, 6.11 27.2 M8.15 25.17 C10.51 24.32, 11.14 28.5, 6.11 27.2 M6.11 27.2 C4.1 27.09, 2.76 26.62, 2.04 27.2 M6.11 27.2 C5.28 26.99, 3.34 27.11, 2.04 27.2 M2.04 27.2 C0.48 25.94, 0.4 25.81, 0 25.17 M2.04 27.2 C0.78 26.74, 1.96 29.1, 0 25.17 M0 25.17 C-1.78 22.07, 1.39 14.13, 0 2.04 M0 25.17 C-0.25 20.17, 0.42 10.71, 0 2.04 M0 2.04 C0.64 -2.25, -0.6 1.64, 2.04 0 M0 2.04 C-3.69 0.82, 2.03 2.2, 2.04 0" stroke="#743c01" stroke-width="1" fill="none"></path>
  </g>
</svg>