<svg version="1.1"
  xmlns="http://www.w3.org/2000/svg" viewBox="0 0 256.7485205403118 387.2590970181366">
  <!-- svg-source:excalidraw -->

  <defs>
    <style>
      @font-face {
        font-family: "Virgil";
        src: url("https://excalidraw.com/Virgil.woff2");
      }
      @font-face {
        font-family: "Cascadia";
        src: url("https://excalidraw.com/Cascadia.woff2");
      }
    </style>
  </defs>
  <g stroke-linecap="round" transform="translate(17.67719028989859 290.356379155238) rotate(0 114.20522528596678 43.4513589314493)">
    <path d="M11.79 24.83 C11.79 24.83, 11.79 24.83, 11.79 24.83 M11.79 24.83 C11.79 24.83, 11.79 24.83, 11.79 24.83 M1.48 42.61 C7.49 33.86, 13.9 26.79, 22.31 19.64 M1.32 42.95 C5.9 37.46, 10.53 32.49, 21.38 20.7 M1.15 48.28 C11.1 39.71, 18.08 33.11, 30.65 14.85 M2.59 47.41 C11.01 36.94, 20.55 26.81, 30.19 15.55 M4.04 53.26 C12.87 41.64, 17.44 36.47, 38.72 10.97 M3.7 52.21 C14.45 40.13, 25.94 27.05, 39.17 13.15 M8.1 55.04 C13.32 43.52, 24.33 34.99, 44.09 13.23 M5.98 55.62 C18.79 39.56, 33.04 24.46, 43.05 13.59 M8.29 58.95 C21.89 43.12, 40.99 23.29, 50.64 11.86 M7.38 60.99 C22.23 43.1, 39.72 24.1, 49.3 12.45 M12.66 61.35 C26.08 48.46, 38.86 30.05, 57.07 7.96 M11.35 63.23 C22.87 49.02, 36.14 34.06, 57.3 9.95 M16.04 65.5 C30.07 47.75, 41.54 32.29, 61.55 7.99 M15.23 63.88 C27.94 48.35, 39.31 34.92, 63.76 8.63 M20.05 64.2 C34.97 45.24, 55.38 23.18, 68.56 8.44 M18.98 67.06 C33.11 48.18, 48.89 30.94, 70.35 7.38 M21.99 67.34 C43.24 44.92, 64.38 20.22, 75.15 6.39 M22.9 68.21 C44.39 42.67, 64.68 19.25, 76.63 5.17 M27 69.61 C37.1 56.14, 50.37 40.9, 84.28 1.27 M26.45 69.1 C38.61 56.25, 51.4 41.92, 84.24 2.05 M28.88 70.08 C41.29 57.09, 54.66 42, 87.88 1.07 M29.93 70.61 C45.45 52.02, 61.02 34.45, 90.6 2.67 M33.62 72.1 C54.89 47.51, 77.5 24.55, 96.1 3.61 M32.64 71.95 C50.89 52.44, 69.04 30.99, 95.03 2.75 M35.54 75.62 C61.12 46.96, 85.44 17.07, 100.29 2.29 M35.86 76.15 C59.49 48.73, 82.72 21.91, 100.37 2.1 M40.76 77.16 C61.18 53.56, 81 30.96, 106.51 0.83 M41.03 77.32 C64.79 48.26, 90.64 19.84, 105.29 2.62 M44.8 77.07 C67.53 52.94, 86.84 25.44, 109.61 2.79 M46.09 77.19 C64.32 53.94, 83.43 31.55, 111.15 1.04 M48.66 78.78 C64.05 63.34, 77.02 45.62, 115.5 1.55 M50.35 79.55 C65 60.11, 82.58 42.65, 116.96 2.19 M53.01 78.81 C78.15 48.54, 106.94 21.13, 123.2 1.82 M53.41 79.53 C79.72 50.63, 107.03 19.89, 122.2 1.71 M57.69 79.24 C84.27 51.27, 110.55 21.99, 128.46 0.65 M57.38 81.35 C84.69 49.2, 112.54 19.89, 127.22 0.36 M60.57 84.99 C85.76 56.98, 106.34 31.68, 133.16 1.64 M62.53 82.83 C84.05 55.95, 106.64 29.53, 133.36 1.46 M67.64 85.29 C85.1 60.68, 105.29 38.06, 138.21 2.01 M66.13 84.08 C84.73 60.72, 105.23 39.65, 138.61 1.17 M72.6 86.71 C97.76 55.92, 122.62 24.14, 140.35 4.02 M70.77 85.85 C93.89 59.18, 116.57 34.94, 141.14 3.25 M75.64 85.91 C96.62 59.23, 119.05 35.88, 146.98 3.77 M75.89 85.45 C95.17 63.98, 114.94 40.07, 146.91 3.02 M80.31 85.11 C98.01 66.69, 117.26 43.34, 151.02 4.94 M81.41 85.51 C103.32 59.84, 125.91 34.08, 151.28 4.42 M86.99 86.38 C105.62 63.13, 125.69 40.26, 155.72 5.29 M85.95 85.53 C106.9 61.73, 129.42 34.77, 156.53 5.69 M91.71 84.83 C115.61 56.59, 140.1 29.81, 160.86 7.16 M90.4 86.33 C105.51 69.94, 120.47 52.42, 160.85 5.18 M94.36 84.43 C120.21 58.63, 142.51 33.19, 167.51 7.95 M96.87 87.06 C113.24 67.44, 130.01 47.7, 165.84 7.07 M99.5 85.48 C120.77 65.91, 141.27 41.87, 168.29 6.68 M100.27 85.97 C118.48 66.39, 136.08 45.66, 169.54 7.13 M107.87 88.59 C120.11 68.78, 135.42 51.96, 176.79 5.64 M106.52 87.64 C125.36 64.51, 144.16 42.84, 176.51 7.7 M109.19 86.21 C132.96 59.61, 159.26 32.3, 178.51 8.76 M110.2 87.72 C136.48 57.18, 162.53 27.59, 179.66 9.24 M114.37 86.36 C137.2 60, 162.95 38.01, 185.52 9.25 M115.38 87.97 C139.69 60.98, 162.59 33.77, 183.54 9.25 M122.98 89.14 C140.26 65.32, 158.99 44.53, 186.13 13.41 M121.97 87.97 C141.48 64.91, 162.93 39.83, 186.84 11.35 M125.47 88.74 C148.98 59.86, 175.94 30.72, 190.95 13.63 M124.58 90.41 C145.6 66.64, 166.91 42.2, 191.15 13.48 M129.2 90.39 C150.74 63.95, 173.98 41.67, 195.8 14.12 M131.35 89.25 C148.48 68.5, 167.39 48.62, 196.62 14.92 M137.46 89.21 C158.27 64.63, 178.82 39.41, 199.16 17.18 M135.77 87.88 C161.79 60.36, 186.18 33.79, 200.21 15.8 M144.19 89.85 C165.58 62.27, 186.66 36.61, 203.65 17.41 M142.03 87.97 C158.52 71.44, 172.56 53.15, 203.87 16.55 M148.83 88.3 C168.77 63.76, 192.63 35.92, 206.95 19.52 M148.7 88.52 C165.82 66.17, 184.99 44.76, 208.23 18.99 M153.13 86.89 C171.77 66.16, 191.18 46.51, 209.86 21.52 M154.33 86.14 C176.63 62.54, 196.12 37.6, 211.41 20.71 M158.07 85.76 C180.33 61.56, 202.33 38.8, 212.56 23.03 M159.01 85.78 C180.31 61.72, 202.35 36.89, 214.02 22.7 M169.88 83.87 C179.04 69.85, 188.44 60.23, 216.71 26.72 M169.21 82.93 C182.54 67.45, 195.19 52.29, 218.01 25.99 M176.4 80.31 C188.87 65.32, 202.34 47.38, 218.31 29.85 M174.9 80.22 C185.2 69.48, 194.94 58.13, 220.33 28.47 M184.43 79.45 C193.73 63.92, 208.34 48.83, 222.53 33.01 M183.61 77.86 C195.91 63.12, 210.99 46.4, 222.41 32.86 M189.25 73.75 C204.19 59.61, 216.67 48.22, 227.22 33.1 M190.71 75.61 C203.52 59.09, 216.28 44.32, 226.51 34.95 M198.85 72 C209.32 61.92, 216.77 49.49, 228.42 37.63 M198.4 72.34 C208.23 61.91, 218 50.22, 227.94 37.14 M203.38 69.57 C213.16 60.46, 221.32 51.53, 225.86 43.43 M205.92 71.52 C212.57 61.06, 219.46 52.8, 227.31 44.44 M7.15 60.36 C7.15 60.36, 7.15 60.36, 7.15 60.36 M7.15 60.36 C7.15 60.36, 7.15 60.36, 7.15 60.36 M20.5 66.91 C18.16 61.38, 11.51 59.67, 5.13 54.47 M20.9 67.3 C14.66 60.62, 9.29 56.56, 3.72 52.33 M33.87 73.91 C25.67 66.76, 19.52 57.52, 2 42.57 M34.39 74.59 C21.61 63.27, 8.77 52.51, 0.4 43.65 M44.51 77.13 C31.7 64.9, 19.9 55.38, 3.07 40.17 M44.04 76.65 C33.48 68.89, 24.82 60.18, 1.71 40.5 M52.62 80.83 C38.05 66.39, 23.99 53.82, 3.79 36.7 M52.75 78.6 C42.13 70.26, 32.84 60.78, 3.32 35.5 M62.05 80.29 C50.62 73.31, 38.21 61.74, 6.05 34.97 M62.38 82.11 C49.62 70.14, 36.68 60.2, 7.47 33.39 M70.32 83.49 C53.83 70.31, 42.02 58.7, 8.39 31.01 M70.6 84.28 C57.14 72.12, 43.32 59.77, 7.9 30.19 M74.33 83.08 C63.96 72.14, 50.09 61.58, 10.07 26.58 M75.36 82.93 C52.32 62.45, 26.58 41.76, 10.69 26.88 M83.98 84.62 C59.87 64.6, 38.37 47.5, 12.48 24.41 M83.16 84.01 C64.34 68.65, 49.24 54.79, 12.43 23.89 M90.79 82.7 C74.08 68.42, 56.02 57.8, 18.22 23.21 M88.56 83.04 C65.23 64.11, 43.91 44.66, 18.03 21.44 M97.21 85.96 C78.49 70.97, 63.49 57.44, 20.76 17.71 M96.11 85.32 C78.45 69.55, 61.73 54.73, 21.14 18.72 M103.62 85.64 C80.67 65.58, 57.87 46.32, 22.79 16.99 M102.18 85.76 C76.69 62.11, 50.13 40.84, 25.23 17.59 M108.31 84.02 C81.64 63.31, 56.17 38.56, 28.39 13.71 M109.68 84.6 C89.29 67.71, 69.63 49.54, 28.55 14.96 M116 84.33 C86.39 60.18, 60.03 38.14, 34.09 12.62 M115.29 84.49 C91.14 65.9, 67.99 43.85, 33.9 14.59 M122.84 84.49 C97.88 66.38, 75.26 43.98, 35.31 13.73 M123.25 85.58 C90.28 59.06, 61.14 31.47, 37.87 11.51 M128.12 86.43 C99.25 61.56, 76.02 41.45, 41.17 12.09 M127.82 85.98 C95.41 56.24, 59.46 26.89, 40.31 11.06 M132.59 86.38 C103.18 55.81, 71.91 29.28, 46.7 11.03 M134.31 85.41 C107.66 62.27, 79.41 38.47, 45.41 9.34 M140.65 86.88 C119.98 68.77, 100.09 50.64, 50.1 8.59 M140.08 84.38 C105.16 56.7, 73.6 27.02, 51.59 8.96 M144.63 85.87 C116.99 57.04, 88.16 33.56, 54.5 8.1 M143.5 84.56 C107.87 54.16, 72.51 23.58, 56.1 6.79 M151.29 83.85 C116.03 51.38, 83.46 24.24, 62.69 5.94 M149.26 83.19 C123.68 60.02, 97.14 36.36, 60.47 7.02 M156.78 84.42 C138.89 65.75, 119.72 50.62, 64.63 4.06 M156.07 82.87 C130.21 62.3, 104.64 40.31, 64.77 4.92 M161.21 81.4 C131.97 55.06, 100.19 30.02, 68.98 2.51 M161.94 81.94 C125.84 53.1, 91.61 22.12, 69.84 4.62 M166.59 82.07 C140.92 61, 115.95 37.84, 74.54 3.9 M166.9 80.93 C136.56 56.3, 108.52 30.61, 75.59 2.83 M169.85 80.91 C143.35 57.68, 118.16 34.23, 81.79 1.93 M170.79 79.6 C136.17 49.5, 103.21 21.57, 81.2 2.57 M174.35 80.16 C148.54 59.33, 127.33 39.56, 82.89 0.56 M173.47 78.71 C154.14 59.39, 132.84 40.9, 83.88 -0.34 M180.64 77.61 C150.14 52.33, 123.88 31.29, 88.68 1.08 M178.38 77.1 C148.05 49.4, 116.9 22.68, 90.67 -1 M183.65 77.18 C150.4 47.75, 114.99 15.29, 93.89 -1.86 M182.44 75.48 C156.85 54.35, 131.15 31.73, 96.35 -0.14 M188.77 73.33 C157.86 47.98, 127.48 19.64, 101.46 -0.6 M186.9 74.12 C157.67 48.11, 129.59 22.75, 100.52 -1.23 M193.04 73.61 C165.6 50.12, 136.57 25.5, 109.47 -1.89 M193.3 72.63 C170.47 52.41, 147.16 32.97, 107.3 -0.65 M198.43 73.15 C178.27 57.3, 158.93 41.83, 112.44 -0.38 M197.44 71.71 C172.92 50.58, 147.76 28.12, 113.36 -1.89 M199.82 71.16 C182.67 54.38, 166.27 39.16, 117.3 -2.17 M200.17 68.89 C177.71 49.4, 154.33 29.82, 118.67 -1.92 M206.29 69.42 C177.1 43.3, 151.39 19.11, 124.67 -2.29 M205.41 68.28 C180.97 45.42, 156.48 25.46, 126.46 -1.35 M209.55 66.14 C192.9 52.72, 174.09 34.91, 130.83 -1.49 M209.31 65.71 C191.8 50.08, 175.24 36, 132.02 -0.02 M210.28 62.41 C191.18 44.51, 172.18 28.96, 138.98 1.51 M211.37 64.35 C194.14 49.79, 178.43 33.55, 140.68 0.03 M215.54 61.43 C197.38 48.21, 183.92 34.77, 148.74 1.31 M214.58 61.26 C194.77 45.13, 176.83 28.21, 146.06 1.05 M218.84 56.95 C204.27 45.18, 189.92 32.49, 155.16 4.85 M218.27 59.06 C204.49 46.33, 189.21 33.55, 155.79 3.94 M223.1 57.81 C202.87 40.36, 180.15 22.72, 161.45 6.02 M221.75 55.71 C198.68 36.96, 174.25 16.39, 161.08 4.03 M223.16 55.1 C205.93 33.52, 181.63 17.05, 168.52 7.43 M225.68 52.94 C203.37 33.47, 181.33 14.82, 170.9 6.14 M225.52 47.37 C207.75 36.5, 194.13 18.84, 175.65 6.99 M224.43 48.68 C212.8 37.47, 201.43 27.79, 175.52 6.37 M225.64 45.62 C216.27 35.3, 200.65 23.33, 187.37 8.22 M226.25 43.35 C211.04 30.52, 194.88 16.48, 186.02 9.72 M227.37 39.38 C218 31.12, 210.42 26.44, 196.31 14.37 M227.38 39.1 C219.08 33.48, 211.37 26.36, 195.99 13.43 M226.75 36.36 C221.11 29, 214.36 19.81, 207.55 16.05 M228.59 34.82 C222.92 30.99, 219.01 28, 206.55 15.81" stroke="#868e96" stroke-width="0.5" fill="none"></path>
    <path d="M82.69 1.64 C96.56 -0.42, 116.11 -0.91, 131.54 0.01 C146.97 0.93, 162.2 3.96, 175.28 7.17 C188.36 10.37, 201.41 14.37, 210.02 19.26 C218.63 24.14, 224.52 30.65, 226.92 36.49 C229.33 42.32, 228.25 48.61, 224.45 54.27 C220.65 59.93, 213.58 65.72, 204.14 70.45 C194.7 75.17, 181.47 79.8, 167.8 82.6 C154.14 85.41, 137.62 86.88, 122.14 87.3 C106.65 87.73, 89.45 87.41, 74.88 85.16 C60.31 82.9, 46.01 77.89, 34.71 73.75 C23.41 69.61, 12.82 65.57, 7.07 60.29 C1.33 55.02, -0.54 48, 0.24 42.1 C1.02 36.19, 4.89 30.06, 11.77 24.85 C18.65 19.65, 28.11 14.94, 41.52 10.88 C54.94 6.82, 82.24 2.13, 92.29 0.51 C102.34 -1.11, 101.6 0.47, 101.83 1.17 M136.32 0.03 C150.93 0.82, 165.25 5.47, 177.87 8.7 C190.48 11.93, 203.9 14.5, 211.99 19.43 C220.09 24.36, 224.61 32.2, 226.44 38.28 C228.28 44.36, 227.22 50.45, 223 55.92 C218.77 61.38, 210.78 66.4, 201.07 71.05 C191.35 75.7, 178.71 81.3, 164.71 83.82 C150.71 86.34, 132.96 85.96, 117.07 86.15 C101.18 86.34, 83.61 86.96, 69.39 84.96 C55.17 82.96, 42.17 78.75, 31.73 74.15 C21.29 69.56, 11.76 62.98, 6.73 57.4 C1.69 51.83, 0.45 46.64, 1.53 40.71 C2.61 34.78, 6.01 27.02, 13.19 21.84 C20.36 16.66, 32.12 13.04, 44.59 9.62 C57.06 6.21, 72.75 3.09, 88.01 1.36 C103.26 -0.37, 128.43 -1.02, 136.12 -0.75 C143.81 -0.48, 134.48 1.99, 134.16 2.98" stroke="#000000" stroke-width="1" fill="none"></path>
  </g>
  <g stroke-linecap="round">
    <g transform="translate(16.136395427980005 337.653826333131) rotate(0 112.23786484217578 -36.07238633323863)">
      <path d="M0.65 0.16 C-0.29 -4.22, -6.46 -17.81, -4.56 -25.97 C-2.67 -34.14, 4.97 -42.98, 12.04 -48.83 C19.11 -54.67, 28.58 -58.05, 37.86 -61.04 C47.15 -64.04, 55.74 -65.3, 67.74 -66.8 C79.74 -68.3, 99.04 -69.16, 109.84 -70.03 C120.63 -70.91, 121.14 -73.06, 132.51 -72.04 C143.89 -71.03, 166.19 -66.48, 178.1 -63.95 C190.01 -61.42, 196.03 -60.4, 203.96 -56.87 C211.88 -53.33, 221.2 -51.68, 225.64 -42.72 C230.08 -33.76, 229.83 -10.07, 230.61 -3.08 M-0.46 -0.8 C-1.7 -5.54, -7.74 -19.77, -5.73 -27.6 C-3.73 -35.44, 4.32 -42.4, 11.57 -47.8 C18.82 -53.2, 28.59 -56.93, 37.75 -60 C46.91 -63.08, 54.29 -64.48, 66.55 -66.25 C78.81 -68.02, 100.32 -70.03, 111.32 -70.64 C122.32 -71.26, 121.48 -71.09, 132.53 -69.94 C143.59 -68.8, 166.02 -66.3, 177.66 -63.77 C189.29 -61.24, 194.17 -58.26, 202.34 -54.76 C210.52 -51.27, 222.45 -51.48, 226.71 -42.8 C230.97 -34.11, 227.44 -9.7, 227.89 -2.68" stroke="#000000" stroke-width="1" fill="none"></path>
    </g>
  </g>
  <g stroke-linecap="round">
    <g transform="translate(109.91725730563849 267.93189751562113) rotate(0 13.915403442744264 -128.5242073456822)">
      <path d="M0.14 -1.14 C-1.14 -36.92, -8.48 -173.91, -8.4 -215.61 C-8.33 -257.32, -3.65 -244.81, 0.59 -251.37 C4.83 -257.93, 12.3 -259.17, 17.02 -254.97 C21.74 -250.76, 25.86 -268.4, 28.91 -226.14 C31.95 -183.88, 34.2 -38.95, 35.3 -1.42 M-1.24 0.88 C-2.55 -34.69, -9.21 -172.12, -8.93 -214.51 C-8.65 -256.89, -3.91 -246.82, 0.45 -253.41 C4.81 -260, 12.73 -258.66, 17.23 -254.03 C21.73 -249.41, 24.18 -267.59, 27.43 -225.64 C30.69 -183.68, 35.28 -39.61, 36.77 -2.33" stroke="#000000" stroke-width="1" fill="none"></path>
    </g>
  </g>
</svg>