<svg version="1.1"
  xmlns="http://www.w3.org/2000/svg" viewBox="0 0 388.22826018644605 372.82160876531987">
  <!-- svg-source:excalidraw -->

  <defs>
    <style>
      @font-face {
        font-family: "Virgil";
        src: url("https://excalidraw.com/Virgil.woff2");
      }
      @font-face {
        font-family: "Cascadia";
        src: url("https://excalidraw.com/Cascadia.woff2");
      }
    </style>
  </defs>
  <g stroke-linecap="round">
    <g transform="translate(183.90449717501474 13.50997524431034) rotate(0 10.209632918208285 172.90082913834968)" fill-rule="evenodd">
      <path d="M0.72 -1.4 L15.36 2.03 L94.81 -2.02 L124.95 -1.3 L151.03 3.76 L164.46 6.88 L174.14 11.78 L180.59 22.1 L187.14 29.87 L192.51 56.83 L192.95 73.31 L192.5 110.68 L184.06 176.43 L174.53 221.75 L161.48 281.9 L150.07 309.63 L139.94 328.8 L132.54 337.09 L117.46 346.89 L102.73 348.6 L83.51 347.61 L30.03 339.02 L15.68 337.54 L-1.79 339.43 L-50.21 349.23 L-63.47 350.08 L-78.41 346.89 L-92.37 337.13 L-105.89 324.74 L-118.8 301.23 L-130.55 268.41 L-145.41 228.79 L-156.8 185.32 L-165.82 143.86 L-171.74 103.69 L-174.5 68.01 L-171.71 53.92 L-170.65 43.5 L-164.82 35.47 L-158.7 26.11 L-150.43 20.67 L-137.84 15.3 L-116.42 8.53 L-89.47 3.25 L-16.09 1.25 L-0.32 -0.52" stroke="none" stroke-width="0" fill="#ced4da" fill-rule="evenodd"></path>
      <path d="M-0.63 1.17 C30.54 6.3, 162.53 -23.01, 186.65 30.47 C210.78 83.95, 172.85 271, 144.12 322.07 C115.39 373.14, 55.62 336.71, 14.26 336.88 C-27.11 337.05, -73.59 372.04, -104.08 323.09 C-134.57 274.14, -185.94 96.91, -168.69 43.17 C-151.44 -10.56, -28.86 7.7, -0.58 0.67 M1.24 0.74 C32.31 5.54, 162.15 -24.65, 185.87 28.59 C209.6 81.83, 172.18 269.14, 143.59 320.16 C115.01 371.18, 55.8 334.15, 14.35 334.7 C-27.1 335.26, -74.29 371.71, -105.09 323.49 C-135.88 275.26, -187.88 99.33, -170.4 45.36 C-152.93 -8.61, -28.72 7.04, -0.23 -0.33" stroke="#000000" stroke-width="1" fill="none"></path>
    </g>
  </g>
</svg>